<?xml version="1.0" encoding="utf-8"?>
<!-- Generator: Adobe Illustrator 26.3.1, SVG Export Plug-In . SVG Version: 6.00 Build 0)  -->
<svg version="1.1" id="Ebene_1" xmlns="http://www.w3.org/2000/svg" xmlns:xlink="http://www.w3.org/1999/xlink" x="0px" y="0px"
	 viewBox="0 0 436.9 290.4" style="enable-background:new 0 0 436.9 290.4;" xml:space="preserve">
<style type="text/css">
	.st0{fill:#FFFFFF;}
	.st1{fill:#69C394;}
</style>
<path class="st0" d="M43.9,190.9c0,2.4-0.5,4.7-1.4,6.9c-0.9,2.1-2.2,4-3.8,5.6s-3.5,2.9-5.6,3.8c-2.2,0.9-4.5,1.4-6.9,1.4H7v28.3H0
	v-63.6h26.2c2.4,0,4.7,0.5,6.9,1.4c2.1,0.9,4,2.2,5.6,3.8s2.8,3.5,3.8,5.6C43.4,186.2,43.9,188.4,43.9,190.9L43.9,190.9z
	 M36.8,190.9c0-1.5-0.3-2.9-0.9-4.1c-0.6-1.3-1.3-2.4-2.3-3.4s-2.1-1.7-3.4-2.3s-2.7-0.9-4.1-0.9H7v21.3h19.1c1.5,0,2.9-0.3,4.1-0.9
	c1.3-0.6,2.4-1.3,3.4-2.3s1.7-2.1,2.3-3.4C36.5,193.8,36.8,192.4,36.8,190.9L36.8,190.9z"/>
<path class="st0" d="M59.7,236.9c-1.5,0-2.8-0.3-4.1-0.8c-1.3-0.6-2.4-1.3-3.3-2.3c-1-1-1.7-2.1-2.3-3.4c-0.6-1.3-0.8-2.6-0.8-4.1
	v-53h7.1v53c0,1,0.3,1.8,1,2.5s1.5,1.1,2.4,1.1h3.5v7H59.7L59.7,236.9z"/>
<path class="st0" d="M107,236.9c-1.7,0-3.3-0.4-4.8-1.1c-1.5-0.7-2.7-1.7-3.6-3c-1.6,1.7-3.5,3-5.7,4s-4.5,1.5-7.1,1.5
	c-2.4,0-4.7-0.5-6.9-1.4c-2.2-0.9-4-2.2-5.6-3.8s-2.9-3.5-3.8-5.6s-1.4-4.4-1.4-6.9v-17c0-2.4,0.5-4.7,1.4-6.9
	c0.9-2.1,2.2-4,3.8-5.6c1.6-1.6,3.5-2.8,5.6-3.8c2.1-0.9,4.4-1.4,6.9-1.4c2.4,0,4.7,0.5,6.9,1.4c2.1,0.9,4,2.2,5.6,3.8
	s2.8,3.5,3.8,5.6c0.9,2.2,1.4,4.4,1.4,6.9v22.7c0,1,0.4,1.8,1.1,2.5s1.5,1.1,2.5,1.1h3.5v7H107L107,236.9z M96.4,203.6
	c0-1.5-0.3-2.8-0.9-4.1s-1.3-2.4-2.3-3.4s-2.1-1.7-3.4-2.3s-2.7-0.9-4.1-0.9c-1.5,0-2.9,0.3-4.1,0.9c-1.3,0.6-2.4,1.3-3.4,2.3
	s-1.7,2.1-2.3,3.4c-0.6,1.3-0.9,2.6-0.9,4.1v17c0,1.5,0.3,2.8,0.9,4.1s1.3,2.4,2.3,3.4s2.1,1.7,3.4,2.3s2.7,0.9,4.1,0.9
	c1.5,0,2.9-0.3,4.1-0.9c1.3-0.6,2.4-1.3,3.4-2.3s1.7-2.1,2.3-3.4c0.6-1.3,0.9-2.7,0.9-4.1V203.6L96.4,203.6z"/>
<path class="st0" d="M151.2,220.6c0,2.4-0.5,4.7-1.4,6.9c-0.9,2.1-2.2,4-3.8,5.6s-3.5,2.9-5.6,3.8c-2.2,0.9-4.5,1.4-6.9,1.4
	c-2,0-3.9-0.3-5.7-0.9c-1.8-0.6-3.5-1.5-4.9-2.6V251h-7v-63.6h7l0.1,2.1c3-2.4,6.5-3.6,10.6-3.6c2.4,0,4.7,0.5,6.9,1.4
	c2.1,0.9,4,2.2,5.6,3.8s2.8,3.5,3.8,5.6c0.9,2.2,1.4,4.4,1.4,6.9v17H151.2z M144.2,203.6c0-1.5-0.3-2.8-0.9-4.1
	c-0.6-1.3-1.3-2.4-2.3-3.4s-2.1-1.7-3.4-2.3c-1.3-0.6-2.7-0.9-4.1-0.9c-1.5,0-2.9,0.3-4.1,0.9c-1.3,0.6-2.4,1.3-3.4,2.3
	s-1.7,2.1-2.3,3.4c-0.6,1.3-0.9,2.6-0.9,4.1v17c0,1.5,0.3,2.8,0.9,4.1s1.3,2.4,2.3,3.4s2.1,1.7,3.4,2.3s2.7,0.9,4.1,0.9
	c1.5,0,2.9-0.3,4.1-0.9c1.3-0.6,2.4-1.3,3.4-2.3s1.7-2.1,2.3-3.4c0.6-1.3,0.9-2.7,0.9-4.1V203.6L144.2,203.6z"/>
<path class="st0" d="M193.9,220.6c0,2.4-0.5,4.7-1.4,6.9c-0.9,2.1-2.2,4-3.8,5.6s-3.5,2.9-5.6,3.8c-2.2,0.9-4.5,1.4-6.9,1.4
	c-2,0-3.9-0.3-5.7-0.9c-1.8-0.6-3.5-1.5-4.9-2.6V251h-7v-63.6h7l0.1,2.1c3-2.4,6.5-3.6,10.6-3.6c2.4,0,4.7,0.5,6.9,1.4
	c2.1,0.9,4,2.2,5.6,3.8s2.8,3.5,3.8,5.6c0.9,2.2,1.4,4.4,1.4,6.9v17H193.9z M186.8,203.6c0-1.5-0.3-2.8-0.9-4.1
	c-0.6-1.3-1.3-2.4-2.3-3.4s-2.1-1.7-3.4-2.3c-1.3-0.6-2.7-0.9-4.1-0.9c-1.5,0-2.9,0.3-4.1,0.9c-1.3,0.6-2.4,1.3-3.4,2.3
	s-1.7,2.1-2.3,3.4c-0.6,1.3-0.9,2.6-0.9,4.1v17c0,1.5,0.3,2.8,0.9,4.1c0.6,1.3,1.3,2.4,2.3,3.4s2.1,1.7,3.4,2.3
	c1.3,0.6,2.7,0.9,4.1,0.9c1.5,0,2.9-0.3,4.1-0.9c1.3-0.6,2.4-1.3,3.4-2.3s1.7-2.1,2.3-3.4c0.6-1.3,0.9-2.7,0.9-4.1V203.6
	L186.8,203.6z"/>
<path class="st0" d="M236.5,220.7c0,2.4-0.5,4.7-1.4,6.9s-2.2,4-3.8,5.6s-3.5,2.9-5.6,3.8c-2.2,0.9-4.4,1.4-6.9,1.4
	c-2.4,0-4.7-0.5-6.9-1.4c-2.1-0.9-4-2.2-5.6-3.8s-2.9-3.5-3.8-5.6c-0.9-2.1-1.4-4.4-1.4-6.9v-17c0-2.4,0.5-4.7,1.4-6.9
	c0.9-2.1,2.2-4,3.8-5.6s3.5-2.8,5.6-3.8c2.1-0.9,4.4-1.4,6.9-1.4c2.4,0,4.7,0.5,6.9,1.4c2.1,0.9,4,2.2,5.6,3.8s2.8,3.5,3.8,5.6
	c0.9,2.2,1.4,4.4,1.4,6.9v7.1h-28.3v9.9c0,1.5,0.3,2.9,0.8,4.1c0.6,1.3,1.3,2.4,2.3,3.4s2.1,1.7,3.4,2.3c1.3,0.6,2.6,0.9,4.1,0.9
	s2.8-0.3,4.1-0.8c1.3-0.6,2.4-1.3,3.4-2.3s1.7-2.1,2.3-3.4c0.6-1.3,0.8-2.6,0.8-4.1L236.5,220.7L236.5,220.7z M229.4,203.7
	c0-1.5-0.3-2.9-0.8-4.1c-0.6-1.3-1.3-2.4-2.3-3.4s-2.1-1.7-3.4-2.3c-1.3-0.6-2.6-0.9-4.1-0.9s-2.8,0.3-4.1,0.9s-2.4,1.3-3.4,2.3
	s-1.7,2.1-2.3,3.4c-0.6,1.3-0.8,2.7-0.8,4.1H229.4L229.4,203.7z"/>
<path class="st0" d="M259.1,193.8c-1.3,0.6-2.4,1.3-3.4,2.3s-1.7,2.1-2.3,3.4c-0.6,1.3-0.8,2.6-0.8,4.1v33.3h-7v-49.5h7v2.1
	c3-2.4,6.5-3.6,10.6-3.6v7C261.7,193,260.4,193.3,259.1,193.8L259.1,193.8z"/>
<path class="st0" d="M312.9,236.9v-36.7c0-2-0.7-3.7-2-5c-1.4-1.4-3-2.1-5-2.1s-3.7,0.7-5,2.1c-1.4,1.4-2,3.1-2,5v36.7h-7v-36.7
	c0-2-0.7-3.7-2.1-5c-1.4-1.4-3-2.1-5-2.1s-3.7,0.7-5,2.1c-1.4,1.4-2,3.1-2,5v36.7h-7v-49.5h7v0.4c2.1-1.2,4.5-1.9,7-1.9
	c2.1,0,4.1,0.4,5.9,1.3c1.8,0.8,3.4,2,4.7,3.5c1.3-1.5,2.9-2.6,4.7-3.5c1.8-0.8,3.8-1.3,5.9-1.3c1.9,0,3.7,0.4,5.5,1.1
	c1.7,0.7,3.2,1.8,4.5,3.1s2.3,2.8,3.1,4.5c0.7,1.7,1.1,3.6,1.1,5.5v36.7L312.9,236.9L312.9,236.9z"/>
<path class="st0" d="M367.9,236.9c-1.7,0-3.3-0.4-4.8-1.1c-1.5-0.7-2.7-1.7-3.6-3c-1.6,1.7-3.6,3-5.7,4c-2.2,1-4.5,1.5-7.1,1.5
	c-2.4,0-4.7-0.5-6.9-1.4c-2.1-0.9-4-2.2-5.6-3.8s-2.9-3.5-3.8-5.6s-1.4-4.4-1.4-6.9v-17c0-2.4,0.5-4.7,1.4-6.9
	c0.9-2.1,2.2-4,3.8-5.6c1.6-1.6,3.5-2.8,5.6-3.8c2.1-0.9,4.4-1.4,6.9-1.4c2.4,0,4.7,0.5,6.9,1.4c2.1,0.9,4,2.2,5.6,3.8
	s2.8,3.5,3.8,5.6c0.9,2.2,1.4,4.4,1.4,6.9v22.7c0,1,0.4,1.8,1.1,2.5s1.5,1.1,2.5,1.1h3.5v7H367.9L367.9,236.9z M357.3,203.6
	c0-1.5-0.3-2.8-0.9-4.1s-1.3-2.4-2.3-3.4s-2.1-1.7-3.4-2.3s-2.7-0.9-4.1-0.9c-1.5,0-2.9,0.3-4.1,0.9c-1.3,0.6-2.4,1.3-3.4,2.3
	s-1.7,2.1-2.3,3.4c-0.6,1.3-0.9,2.6-0.9,4.1v17c0,1.5,0.3,2.8,0.9,4.1s1.3,2.4,2.3,3.4s2.1,1.7,3.4,2.3s2.7,0.9,4.1,0.9
	c1.5,0,2.9-0.3,4.1-0.9c1.3-0.6,2.4-1.3,3.4-2.3s1.7-2.1,2.3-3.4c0.6-1.3,0.9-2.7,0.9-4.1V203.6L357.3,203.6z"/>
<path class="st0" d="M414,236.9c-1.7,0-3.3-0.4-4.8-1.1c-1.5-0.7-2.7-1.7-3.6-2.9c-1.6,1.7-3.6,3-5.7,4c-2.2,1-4.5,1.5-7.1,1.5
	c-2.4,0-4.7-0.5-6.9-1.4c-2.2-0.9-4-2.2-5.6-3.8s-2.9-3.5-3.8-5.6s-1.4-4.4-1.4-6.9v-33.2h7v33.2c0,1.5,0.3,2.8,0.9,4.1
	s1.3,2.4,2.3,3.4s2.1,1.7,3.4,2.3s2.7,0.8,4.1,0.8c1.5,0,2.9-0.3,4.1-0.8c1.3-0.6,2.4-1.3,3.4-2.3s1.7-2.1,2.3-3.4
	c0.6-1.3,0.9-2.6,0.9-4.1v-33.2h7v38.9c0,1,0.4,1.8,1.1,2.5s1.5,1.1,2.5,1.1h3.5v7H414V236.9z"/>
<path class="st0" d="M433.4,236.9c-1.5,0-2.8-0.3-4.1-0.8c-1.3-0.6-2.4-1.3-3.3-2.3c-1-1-1.7-2.1-2.3-3.4c-0.6-1.3-0.8-2.6-0.8-4.1
	v-53h7.1v53c0,1,0.3,1.8,1,2.5s1.5,1.1,2.4,1.1h3.5v7H433.4L433.4,236.9z"/>
<path class="st0" d="M242.8,116.9h-60c-6.1,0-11.8-1.2-17-3.5c-5.3-2.3-9.9-5.5-13.9-9.5s-7.1-8.6-9.5-13.9c-2.3-5.3-3.5-11-3.5-17
	c0-6.1,1.2-11.8,3.5-17c2.3-5.3,5.5-9.9,9.5-13.9s8.6-7.1,13.9-9.5c5.3-2.3,10.9-3.5,17-3.5h9.3L175.5,0.4
	c-7.3,0.7-14.2,2.5-20.8,5.4c-8.9,3.9-16.6,9.1-23.3,15.8S119.5,36,115.6,44.9s-5.8,18.3-5.8,28.4c0,10.5,2,20.2,6.1,29.2
	s9.6,16.9,16.6,23.6c-5.1,4-9.2,9-12.3,15.1c-3,6.1-4.6,12.6-4.6,19.6v13.7c3.8-7.2,17-28.4,42.7-28.4l0,0c0.3,0,0.7,0,1.1,0H253
	c2.1,0,4.3-0.1,6.4-0.3L242.8,116.9L242.8,116.9z"/>
<path class="st1" d="M320.1,44.8c-3.9-8.9-9-16.6-15.6-23.3c-6.5-6.6-14.2-11.9-23.1-15.8C272.5,1.9,263,0,253,0h-70
	c-2.6,0-5.1,0.1-7.6,0.4l0,0L192,29.1h60.9c6.1,0,11.8,1.2,17,3.5c5.3,2.3,9.9,5.5,13.9,9.5s7.1,8.6,9.5,13.9c2.3,5.3,3.5,11,3.5,17
	c0,6.1-1.2,11.8-3.5,17c-2.3,5.3-5.5,9.9-9.5,13.9s-8.6,7.1-13.9,9.5c-5.3,2.3-10.9,3.5-17,3.5h-10.2l16.6,28.8
	c-0.5,0-1,0.1-1.5,0.1c8.2-0.5,16.1-2.4,23.5-5.6c8.9-3.9,16.6-9,23.1-15.6c6.5-6.5,11.7-14.2,15.6-23.1c3.8-8.9,5.8-18.3,5.8-28.4
	C325.8,63.1,323.9,53.7,320.1,44.8L320.1,44.8z"/>
<path class="st0" d="M14.3,280.2l9.1-19.6V283h2.1v-23.8h-3.8c-0.4,1-1,2.3-7.9,17.8c-0.3,0.8-1,1.3-1.6,0l-8-17.8h-4V283h2.1
	c0-7.7,0.1-15.4,0.1-22.4l9.5,19.6H14.3L14.3,280.2z M39.4,279.7c-1.4,1.4-3.1,2.1-4.5,2.1c-2.1,0-3.8-1.1-3.8-3.7
	c0-3.7,2-3.7,3.6-3.7c1.5,0,2.7,0,4.7-0.5V279.7L39.4,279.7z M41.6,272c0-5.5-2.7-6.7-5.9-6.7c-2.1,0-4.1,0.5-5.7,1.1
	c0.3,0.6,0.3,0.8,0.6,1.5c1-0.4,2.6-1,4.9-1c2.9,0,3.9,0.5,3.9,5.2c-1,0.9-1.7,0.9-5.1,0.9c-4.1,0-5.4,2.4-5.4,5.1
	c0,3.4,1.8,5.2,4.4,5.2c2.7,0,4.2-0.7,5.7-1.5l1.1,1.2h1.6L41.6,272L41.6,272z M48,283v-8.2c0-5.7,2.6-7.7,4.8-7.7
	c0.8,0,1.2,0.1,2.5,0.5l0.1-1.8c-0.4-0.2-1.2-0.4-2.7-0.4c-2.8,0-3.9,2-4.8,4.3l-0.5-3.8h-1.8V283H48L48,283z M67.1,276.3
	c3.2-2.1,5.2-4.5,5.2-7c0-2.6-1.8-4.7-4.6-4.7c-2.9,0-5.5,1.7-7.3,4.6v-12.7h-2.3V283h2.3v-9.9c0.1-3.4,3.9-6.7,6.7-6.7
	c1.9,0,3.2,1.3,3.2,3.3c0,3.1-4.3,5.6-7.1,6.7v1.8l2-0.9l4.3,5.7h2.6L67.1,276.3L67.1,276.3z M77.4,272.9c0-3.1,1.5-6,5.4-6
	c1.9,0,3,0.6,3.8,1.8c0.7,1.2,1.1,2.5,1.1,4.2H77.4L77.4,272.9z M82.7,282.2c-5.3,0-5.6-3.3-5.6-7.9h12.4c0-6.1-2.3-8.9-6.8-8.9
	c-5.4,0-7.8,3.5-7.8,9.5c0.1,5.4,1.9,8.7,7.8,8.7c2.1,0,4.5-0.5,6.5-2.9c-0.2-0.2-0.4-0.4-1.5-1.2C87.1,280.5,85.4,282.2,82.7,282.2
	L82.7,282.2z M105,281.1c-1.1,0.5-2.6,0.7-3.2,0.7c-1.1,0-5.1,0-5.1-3.4v-11.2h4.4v-1.4h-4.4v-5.1h-1.6l-0.7,5.1h-3.3v1.4h3.3v11.2
	c0,4.9,4,5.1,6.4,5.1c0.9,0,2.9-0.1,6.4-0.9l-0.1-16.8H105V281.1L105,281.1z M107.2,259.4v-2.8h-2.8v2.8H107.2L107.2,259.4z
	 M123.4,283h2.1v-10.4c0-5-2.2-7.3-5.3-7.3c-2.7,0-5.8,1.8-6.7,3.9l-0.2-3.4h-2V283h2.2v-11c0-2.7,2.7-5.1,5.7-5.1
	c2.8,0,4.2,2,4.2,5.4L123.4,283L123.4,283z M142.9,265.8l-0.2,2.5c-1.3-2-2.8-3-6.1-3c-5.7,0-7.7,3.3-7.7,9c0,4.9,2,9.4,8,9.4
	c2.6,0,4-0.8,5.3-2.6v2.2c0,1.1,0.1,5.7-5.6,5.7c-1.5,0-2.8-0.6-3.8-1.3c-0.6-0.4-1.1-0.8-1.6-1.3l-1.3,1.1c1.6,1.9,3.7,3,6.6,3
	c7.8,0,7.8-6.1,7.8-7.2v-17.4h-1.4V265.8z M131.2,274.2c0-7.5,3.4-7.4,5.7-7.4c2.2,0,5.4,0.1,5.4,7.4c0,7.6-3.4,7.8-5.3,7.8
	C134.6,282.1,131.2,281.4,131.2,274.2L131.2,274.2z M160.2,265.8H158v10.7c0,5.3,2.5,7.1,5.4,7.1c3.3,0,5.7-1.5,6.7-4.2l0.2,3.6h2
	v-17.2h-2.2v10.4c0,3.6-3.3,5.8-6.2,5.8s-3.7-1.9-3.7-5.3V265.8L160.2,265.8z M189.3,283h2.1v-10.4c0-5-2.2-7.3-5.3-7.3
	c-2.7,0-5.8,1.8-6.7,3.9l-0.2-3.4h-2V283h2.2v-11c0-2.7,2.7-5.1,5.7-5.1c2.8,0,4.2,2,4.2,5.4V283L189.3,283z M207.2,275.6
	c0,4.1-1.7,6.3-5.7,6.3c-3.9,0-4.4-4.8-4.4-7.6c0-1.6-0.1-7.6,4.6-7.6c1.7,0,4.4,0.9,5.5,1.4L207.2,275.6L207.2,275.6z M207.2,280.7
	c0,1.7,0.1,2,0.1,2.4h2.1v-26.5h-2.2v9.7c-2.4-0.9-4.4-1.2-5.5-1.2c-3.6,0-6.8,2.5-6.8,9.2c0,6.8,3,9.1,6.6,9.1
	C204.3,283.4,206.2,282.3,207.2,280.7L207.2,280.7z M225.4,272.8v-13.6h-2.1V283h2.1v-7.6l4.7-5.1l8.4,12.8h2.6l-9.6-14.5l7.8-9.3
	H237L225.4,272.8L225.4,272.8z M245.1,274.3c0-7.6,3.2-7.5,5.5-7.5s5.7,0.1,5.7,7.5c0,7.7-3.4,7.7-5.3,7.7
	C248.5,282,245.1,281.6,245.1,274.3L245.1,274.3z M250.6,265.3c-5.8,0-7.8,3.3-7.8,9c0,4.9,2.1,9.2,8.1,9.2c6.1,0,7.8-3.2,7.8-9.2
	C258.8,269.4,257,265.3,250.6,265.3L250.6,265.3z M302.2,283h2.1v-10.7c0-5.2-1.3-7-4.1-7c-2.7,0-5.4,1.6-6.1,3.8
	c-0.4-2.9-2.5-3.8-4-3.8c-2.3,0-5,1.3-5.9,4.2c-0.5-3.1-2.4-4.2-4.1-4.2c-2.6,0-5.2,1.8-6.1,3.8c-0.5-2.7-2.4-3.8-4-3.8
	c-2.2,0-4.7,1.1-5.8,3.8l-0.3-3.3H262V283h2.3v-10.6c0-2.5,1.5-5.4,4.8-5.4c2.4,0,3.1,1.9,3.1,5.4V283h2.2v-10.6
	c0-2.7,1.6-5.4,4.9-5.4c2.7,0,3.1,2,3.1,5.1v11h2.1l-0.1-10.8c0.1-2.5,1.8-5.3,4.9-5.3c2.4,0,3,2.6,3,5.4V283h2.2v-10.6
	c0-2.7,1.6-5.4,4.9-5.4c2.8,0,3.1,2.6,3.1,5.1V283H302.2z M309.3,265.8H307v10.7c0,5.3,2.5,7.1,5.5,7.1c3.3,0,5.7-1.5,6.7-4.2
	l0.2,3.6h2v-17.2h-2.2v10.4c0,3.6-3.3,5.8-6.2,5.8c-2.9,0-3.7-1.9-3.7-5.3V265.8L309.3,265.8z M338.3,283h2.1v-10.4
	c0-5-2.2-7.3-5.3-7.3c-2.7,0-5.8,1.8-6.7,3.9l-0.2-3.4h-2V283h2.2v-11c0-2.7,2.7-5.1,5.7-5.1c2.8,0,4.2,2,4.2,5.4L338.3,283
	L338.3,283z M347.5,259.4v-2.8h-2.8v2.8H347.5L347.5,259.4z M345.2,283h2.3v-17.2h-2.3V283L345.2,283z M361.7,276.3
	c3.2-2.1,5.2-4.5,5.2-7c0-2.6-1.8-4.7-4.6-4.7c-2.9,0-5.5,1.7-7.3,4.6v-12.7h-2.3V283h2.3v-9.9c0.1-3.4,3.9-6.7,6.7-6.7
	c1.9,0,3.2,1.3,3.2,3.3c0,3.1-4.3,5.6-7.1,6.7v1.8l2-0.9l4.3,5.7h2.6L361.7,276.3L361.7,276.3z M379.4,279.7
	c-1.4,1.4-3.1,2.1-4.5,2.1c-2.1,0-3.8-1.1-3.8-3.7c0-3.7,2-3.7,3.6-3.7c1.5,0,2.7,0,4.7-0.5L379.4,279.7L379.4,279.7z M381.6,272
	c0-5.5-2.7-6.7-5.9-6.7c-2.1,0-4.1,0.5-5.7,1.1c0.3,0.6,0.3,0.8,0.6,1.5c1-0.4,2.6-1,4.9-1c2.9,0,3.9,0.5,3.9,5.2
	c-1,0.9-1.7,0.9-5.1,0.9c-4.1,0-5.4,2.4-5.4,5.1c0,3.4,1.8,5.2,4.4,5.2c2.7,0,4.2-0.7,5.7-1.5l1.1,1.2h1.6v-11H381.6z M397.6,281.1
	c-1.1,0.5-2.6,0.7-3.2,0.7c-1.1,0-5.1,0-5.1-3.4v-11.2h4.4v-1.4h-4.4v-5.1h-1.6l-0.7,5.1h-3.3v1.4h3.3v11.2c0,4.9,4,5.1,6.4,5.1
	c0.9,0,2.9-0.1,6.4-0.9l-0.1-16.8h-2.2v15.3H397.6z M399.8,259.4v-2.8H397v2.8H399.8L399.8,259.4z M405.2,274.3
	c0-7.6,3.2-7.5,5.5-7.5s5.7,0.1,5.7,7.5c0,7.7-3.4,7.7-5.3,7.7C408.5,282,405.2,281.6,405.2,274.3L405.2,274.3z M410.6,265.3
	c-5.8,0-7.8,3.3-7.8,9c0,4.9,2.1,9.2,8.1,9.2c6.1,0,7.8-3.2,7.8-9.2C418.8,269.4,417,265.3,410.6,265.3L410.6,265.3z M434.7,283h2.1
	v-10.4c0-5-2.2-7.3-5.3-7.3c-2.7,0-5.8,1.8-6.7,3.9l-0.2-3.4h-2V283h2.2v-11c0-2.7,2.7-5.1,5.7-5.1c2.8,0,4.2,2,4.2,5.4L434.7,283
	L434.7,283z"/>
</svg>
